<?xml version="1.0" encoding="UTF-8"?>
<svg id="Layer_2" data-name="Layer 2" xmlns="http://www.w3.org/2000/svg" xmlns:xlink="http://www.w3.org/1999/xlink" viewBox="0 0 269.64 269.32">
  <defs>
    <style>
      .cls-1 {
        fill: url(#New_Gradient_Swatch_1);
      }

      .cls-1, .cls-2, .cls-3, .cls-4 {
        stroke-width: 0px;
      }

      .cls-2 {
        fill: #737474;
      }

      .cls-3 {
        fill: #73ccd7;
      }

      .cls-4 {
        fill: #a6a5a5;
      }
    </style>
    <linearGradient id="New_Gradient_Swatch_1" data-name="New Gradient Swatch 1" x1="-257.11" y1="905.98" x2="-252.09" y2="1333.04" gradientTransform="translate(640.1 889.59) rotate(-26.75) scale(.79 -.79)" gradientUnits="userSpaceOnUse">
      <stop offset="0" stop-color="#73ccd7"/>
      <stop offset=".02" stop-color="#73ccd7"/>
      <stop offset=".76" stop-color="#fff"/>
      <stop offset="1" stop-color="#fff"/>
    </linearGradient>
  </defs>
  <g id="Layer_1-2" data-name="Layer 1">
    <g>
      <path class="cls-2" d="m243.29,90.07c1.25,3.44,2.33,6.91,3.2,10.38.91,3.61,1.63,7.17,2.14,10.65,1.84,12.46,1.43,25.07-1.1,37.26-2.52,12.17-7.17,23.89-13.81,34.6l-8.73-5.44c6.02-9.69,10.21-20.29,12.49-31.28,2.27-10.96,2.63-22.35.97-33.65-.49-3.33-1.13-6.55-1.91-9.63-.81-3.21-1.78-6.35-2.89-9.38l9.63-3.52ZM16.41,121.96c.86-23.15,8-45.15,20.1-63.92,12.11-18.78,29.18-34.37,49.9-44.71l2.88,5.74c-19.67,9.82-35.88,24.62-47.37,42.45-11.5,17.84-18.29,38.72-19.1,60.68l-6.4-.24Zm187.16,115.93c-4.09,2.23-8.28,4.22-12.54,5.97-4.26,1.75-8.64,3.26-13.12,4.55-33.15,9.51-67.05,4.88-95.2-10.35-28.15-15.24-50.57-41.08-60.74-74.03l6.13-1.89c9.66,31.27,30.94,55.81,57.68,70.27,26.73,14.46,58.91,18.85,90.37,9.82,4.2-1.2,8.36-2.65,12.45-4.33,4.08-1.67,8.06-3.56,11.91-5.66l3.07,5.64Zm45.97-42.76c-4.1,6.38-8.75,12.37-13.9,17.89-5.15,5.53-10.8,10.6-16.87,15.13l-3.85-5.15c5.77-4.31,11.13-9.12,16.01-14.36,4.89-5.25,9.32-10.94,13.2-16.99l5.4,3.48Zm5.62-127.29c1.99,3.8,3.79,7.71,5.39,11.69,1.6,3.99,3,8.07,4.18,12.2,4.12,14.37,5.64,29.26,4.58,43.96-1.05,14.69-4.66,29.21-10.79,42.85l-5.85-2.62c5.82-12.95,9.25-26.74,10.25-40.68.99-13.94-.44-28.07-4.36-41.73-1.13-3.93-2.45-7.79-3.96-11.57-1.51-3.78-3.22-7.49-5.13-11.11l5.7-2.98ZM108.06,4.91c22.98-6.59,46.85-6.43,69.03-.22,22.18,6.2,42.67,18.44,58.9,35.98l-4.71,4.36c-15.42-16.67-34.87-28.29-55.92-34.18-21.04-5.88-43.7-6.03-65.52.23l-1.77-6.17Zm-59.15,56.88c11.86-17.2,27.95-30.48,46.26-38.92,18.32-8.44,38.86-12.03,59.64-9.87l-.27,2.55c-20.31-2.11-40.4,1.4-58.29,9.65-17.9,8.25-33.62,21.23-45.22,38.04l-2.11-1.46Zm86.32,178.87c-4.18-.28-8.33-.8-12.43-1.53-4.11-.74-8.19-1.7-12.2-2.89-29.83-8.81-53.39-28.75-67.45-53.98-14.06-25.23-18.6-55.77-10.4-85.76l2.48.67c-8.02,29.32-3.58,59.17,10.16,83.84,13.74,24.67,36.78,44.15,65.93,52.76,3.92,1.16,7.91,2.1,11.92,2.82,4.02.73,8.09,1.22,12.15,1.5l-.17,2.56Zm55.7-10.29c-6.21,2.87-12.66,5.18-19.25,6.89-6.59,1.71-13.34,2.83-20.17,3.34l-.19-2.56c6.66-.5,13.26-1.6,19.71-3.27,6.45-1.67,12.75-3.93,18.82-6.73l1.08,2.33Zm65.91-94.16c-.33,3.89-.85,7.73-1.56,11.52-.71,3.8-1.63,7.58-2.72,11.3-3.82,12.93-9.88,25-17.8,35.68-7.92,10.67-17.7,19.97-28.96,27.39l-1.42-2.14c11.02-7.26,20.58-16.35,28.32-26.77,7.74-10.43,13.65-22.22,17.39-34.88,1.07-3.63,1.96-7.32,2.66-11.05.71-3.75,1.21-7.51,1.53-11.26l2.55.22ZM175.36,17.07c20.68,6.11,38.76,17.79,52.65,33.25,13.87,15.46,23.54,34.69,27.4,55.92l-2.52.46c-3.77-20.74-13.22-39.55-26.78-54.66-13.57-15.11-31.25-26.52-51.47-32.51l.73-2.46Zm-124.2,55.08c7.28-12.26,16.85-22.8,28.04-31.13,11.19-8.34,24.05-14.48,37.9-17.94l2.47,9.95c-12.46,3.11-24.07,8.67-34.21,16.22-10.14,7.55-18.8,17.09-25.37,28.16l-8.83-5.26ZM127.42,21.01c19.95-2.94,39.87-.13,57.71,7.53,17.83,7.66,33.58,20.18,45.18,36.66l-8.41,5.93c-10.48-14.9-24.72-26.21-40.84-33.14-16.11-6.92-34.12-9.46-52.14-6.8l-1.49-10.18Zm53.31,24.59c2.75,1.28,5.44,2.7,8.03,4.25,2.66,1.58,5.19,3.27,7.58,5.04,8.46,6.29,15.69,13.99,21.4,22.69,5.71,8.7,9.91,18.4,12.32,28.68l-6.25,1.46c-2.24-9.55-6.13-18.54-11.42-26.61-5.29-8.06-12-15.21-19.89-21.07-2.31-1.72-4.66-3.28-7.02-4.69-2.43-1.45-4.92-2.77-7.47-3.95l2.72-5.81Z"/>
      <polygon class="cls-4" points="181.12 46.64 244.32 109.84 244.32 192.98 181.12 256.18 91.79 256.18 28.59 192.98 28.59 109.84 91.79 46.64 181.12 46.64"/>
      <path class="cls-1" d="m133.64,209.29l24.37,48.36c-53.73,27.08-119.25,5.46-146.33-48.27C-15.4,155.64,6.21,90.13,59.94,63.05l24.37,48.36c-27.03,13.62-37.91,46.58-24.28,73.61,13.62,27.04,46.58,37.89,73.61,24.27Z"/>
      <rect class="cls-3" x="59.76" y="28.1" width="34.14" height="34.14" transform="translate(-12.11 39.41) rotate(-26.75)"/>
      <rect class="cls-3" x="147.18" y="196.25" width="43.6" height="52.97" transform="translate(-82.16 99.88) rotate(-26.75)"/>
      <rect class="cls-3" x="113.6" y="25.23" width="34.14" height="75.34" transform="translate(-14.33 65.54) rotate(-26.75)"/>
      <rect class="cls-3" x="184.8" y="156" width="34.14" height="75.34" transform="translate(-65.56 111.57) rotate(-26.75)"/>
      <rect class="cls-3" x="117.23" y="138.01" width="79.95" height="30.87" transform="translate(-52.24 87.17) rotate(-26.75)"/>
    </g>
  </g>
</svg>